[Header]
FileType HTR
DataType HTRS
FileVersion 1
NumSegments 64
NumFrames 4
DataFrameRate 24
EulerRotationOrder ZYX
CalibrationUnits mm
RotationUnits Degrees
GlobalAxisofGravity Y
BoneLengthAxis Y
ScaleFactor 1.0
[SegmentNames&Hierarchy]
Hips	GLOBAL
Spine	Hips
Spine1	Spine
Spine2	Spine1
Neck	Spine2
Head	Neck
LeftEye	Head
RightEye	Head
LeftShoulder	Spine2
LeftArm	LeftShoulder
LeftForeArm	LeftArm
LeftHand	LeftForeArm
LeftHandThumb1	LeftHand
LeftHandThumb2	LeftHandThumb1
LeftHandThumb3	LeftHandThumb2
LeftHandThumb4	LeftHandThumb3
LeftHandIndex1	LeftHand
LeftHandIndex2	LeftHandIndex1
LeftHandIndex3	LeftHandIndex2
LeftHandIndex4	LeftHandIndex3
LeftHandMiddle1	LeftHand
LeftHandMiddle2	LeftHandMiddle1
LeftHandMiddle3	LeftHandMiddle2
LeftHandMiddle4	LeftHandMiddle3
LeftHandRing1	LeftHand
LeftHandRing2	LeftHandRing1
LeftHandRing3	LeftHandRing2
LeftHandRing4	LeftHandRing3
LeftHandPinky1	LeftHand
LeftHandPinky2	LeftHandPinky1
LeftHandPinky3	LeftHandPinky2
LeftHandPinky4	LeftHandPinky3
RightShoulder	Spine2
RightArm	RightShoulder
RightForeArm	RightArm
RightHand	RightForeArm
RightHandPinky1	RightHand
RightHandPinky2	RightHandPinky1
RightHandPinky3	RightHandPinky2
RightHandPinky4	RightHandPinky3
RightHandRing1	RightHand
RightHandRing2	RightHandRing1
RightHandRing3	RightHandRing2
RightHandRing4	RightHandRing3
RightHandMiddle1	RightHand
RightHandMiddle2	RightHandMiddle1
RightHandMiddle3	RightHandMiddle2
RightHandMiddle4	RightHandMiddle3
RightHandIndex1	RightHand
RightHandIndex2	RightHandIndex1
RightHandIndex3	RightHandIndex2
RightHandIndex4	RightHandIndex3
RightHandThumb1	RightHand
RightHandThumb2	RightHandThumb1
RightHandThumb3	RightHandThumb2
RightHandThumb4	RightHandThumb3
LeftUpLeg	Hips
LeftLeg	LeftUpLeg
LeftFoot	LeftLeg
LeftToeBase	LeftFoot
RightUpLeg	Hips
RightLeg	RightUpLeg
RightFoot	RightLeg
RightToeBase	RightFoot
[BasePosition]
Hips	0	0	0	0	0	0	1
Spine	0	0	0	0	0	0	1
Spine1	0	0	0	0	0	0	1
Spine2	0	0	0	0	0	0	1
Neck	0	0	0	0	0	0	1
Head	0	0	0	0	0	0	1
LeftEye	0	0	0	0	0	0	1
RightEye	0	0	0	0	0	0	1
LeftShoulder	0	0	0	0	0	0	1
LeftArm	0	0	0	0	0	0	1
LeftForeArm	0	0	0	0	0	0	1
LeftHand	0	0	0	0	0	0	1
LeftHandThumb1	0	0	0	0	0	0	1
LeftHandThumb2	0	0	0	0	0	0	1
LeftHandThumb3	0	0	0	0	0	0	1
LeftHandThumb4	0	0	0	0	0	0	1
LeftHandIndex1	0	0	0	0	0	0	1
LeftHandIndex2	0	0	0	0	0	0	1
LeftHandIndex3	0	0	0	0	0	0	1
LeftHandIndex4	0	0	0	0	0	0	1
LeftHandMiddle1	0	0	0	0	0	0	1
LeftHandMiddle2	0	0	0	0	0	0	1
LeftHandMiddle3	0	0	0	0	0	0	1
LeftHandMiddle4	0	0	0	0	0	0	1
LeftHandRing1	0	0	0	0	0	0	1
LeftHandRing2	0	0	0	0	0	0	1
LeftHandRing3	0	0	0	0	0	0	1
LeftHandRing4	0	0	0	0	0	0	1
LeftHandPinky1	0	0	0	0	0	0	1
LeftHandPinky2	0	0	0	0	0	0	1
LeftHandPinky3	0	0	0	0	0	0	1
LeftHandPinky4	0	0	0	0	0	0	1
RightShoulder	0	0	0	0	0	0	1
RightArm	0	0	0	0	0	0	1
RightForeArm	0	0	0	0	0	0	1
RightHand	0	0	0	0	0	0	1
RightHandPinky1	0	0	0	0	0	0	1
RightHandPinky2	0	0	0	0	0	0	1
RightHandPinky3	0	0	0	0	0	0	1
RightHandPinky4	0	0	0	0	0	0	1
RightHandRing1	0	0	0	0	0	0	1
RightHandRing2	0	0	0	0	0	0	1
RightHandRing3	0	0	0	0	0	0	1
RightHandRing4	0	0	0	0	0	0	1
RightHandMiddle1	0	0	0	0	0	0	1
RightHandMiddle2	0	0	0	0	0	0	1
RightHandMiddle3	0	0	0	0	0	0	1
RightHandMiddle4	0	0	0	0	0	0	1
RightHandIndex1	0	0	0	0	0	0	1
RightHandIndex2	0	0	0	0	0	0	1
RightHandIndex3	0	0	0	0	0	0	1
RightHandIndex4	0	0	0	0	0	0	1
RightHandThumb1	0	0	0	0	0	0	1
RightHandThumb2	0	0	0	0	0	0	1
RightHandThumb3	0	0	0	0	0	0	1
RightHandThumb4	0	0	0	0	0	0	1
LeftUpLeg	0	0	0	0	0	0	1
LeftLeg	0	0	0	0	0	0	1
LeftFoot	0	0	0	0	0	0	1
LeftToeBase	0	0	0	0	0	0	1
RightUpLeg	0	0	0	0	0	0	1
RightLeg	0	0	0	0	0	0	1
RightFoot	0	0	0	0	0	0	1
RightToeBase	0	0	0	0	0	0	1
[Hips]
359	432.684082	963.5769043	-181.480835	-16.51696968	-28.98864555	-344.3874817	1.0
360	425.7742615	981.5100708	-176.7520752	-11.26270294	-32.25875854	-351.1377258	1.0
361	410.6255493	995.0635986	-179.1210785	-6.474261284	-32.94226074	-358.7670898	1.0
362	393.0609741	998.7686157	-184.4621429	-3.073266745	-29.52058029	-364.5238037	1.0
[Spine]
359	0	101.8159943	1.315000057	15.51368046	9.823476791	-9.729376793	1.0
360	0	101.8159943	1.315000057	12.70191193	13.92780685	4.268262863	1.0
361	0	101.8159943	1.315000057	12.17162418	17.00703239	12.10789776	1.0
362	0	101.8159943	1.315000057	12.1856842	18.91007996	16.31809807	1.0
[Spine1]
359	0	100.8349991	-10.00800037	1.221746325	1.32339251	-3.166523933	1.0
360	0	100.8349991	-10.00800037	2.320447922	2.328938484	-5.918501854	1.0
361	0	100.8349991	-10.00800037	2.207925797	2.82423377	-5.349730968	1.0
362	0	100.8349991	-10.00800037	1.22765255	3.025896311	-4.363221169	1.0
[Spine2]
359	0	91	-13.73399925	1.258188844	1.254653692	-3.180990934	1.0
360	0	91	-13.73399925	2.513340473	2.210855007	-5.883785248	1.0
361	0	91	-13.73399925	2.4567101	2.712845087	-5.295721531	1.0
362	0	91	-13.73399925	1.477941751	2.943642616	-4.336622238	1.0
[Neck]
359	0	166.7169952	-25.16200066	-5.894828796	3.96153307	-3.379303455	1.0
360	0	166.7169952	-25.16200066	-4.927412033	5.459751129	-4.748747826	1.0
361	0	166.7169952	-25.16200066	-3.941007376	6.810712337	-6.044849396	1.0
362	0	166.7169952	-25.16200066	-2.273390532	7.424003601	-6.473327637	1.0
[Head]
359	0	96.17900085	16.84999847	3.102502823	15.55060005	2.129133224	1.0
360	0	96.17900085	16.84999847	2.542883158	21.58027458	0.5461837053	1.0
361	0	96.17900085	16.84999847	4.360979557	26.71678734	-0.7794902325	1.0
362	0	96.17900085	16.84999847	4.490456104	29.02737427	-1.440697312	1.0
[LeftEye]
359	30.6760006	64.09500122	92.83599854	0	0	0	1.0
360	30.6760006	64.09500122	92.83599854	0	0	0	1.0
361	30.6760006	64.09500122	92.83599854	0	0	0	1.0
362	30.6760006	64.09500122	92.83599854	0	0	0	1.0
[RightEye]
359	-30.6760006	64.09500122	92.83499908	0	0	0	1.0
360	-30.6760006	64.09500122	92.83499908	0	0	0	1.0
361	-30.6760006	64.09500122	92.83499908	0	0	0	1.0
362	-30.6760006	64.09500122	92.83499908	0	0	0	1.0
[LeftShoulder]
359	45.70400238	109.4599991	-26.28000069	0.2843704522	2.535377741	-23.0364418	1.0
360	45.70400238	109.4599991	-26.28000069	-0.219369784	4.224208355	-24.12926292	1.0
361	45.70400238	109.4599991	-26.28000069	-1.433629751	8.438840866	-22.5817318	1.0
362	45.70400238	109.4599991	-26.28000069	-1.7267344	10.61065197	-17.47310257	1.0
[LeftArm]
359	105.923996	-5.24600029	-22.32099915	43.67985153	-8.674822807	-29.28359795	1.0
360	105.923996	-5.24600029	-22.32099915	33.27323532	5.796946526	-28.95252228	1.0
361	105.923996	-5.24600029	-22.32099915	17.82988548	24.83769417	-29.9926033	1.0
362	105.923996	-5.24600029	-22.32099915	14.00082207	39.48389435	-28.30890083	1.0
[LeftForeArm]
359	278.414978	-0.0009999999311	0	6.710983143e-06	-24.61065483	-0.0002245234209	1.0
360	278.414978	-0.0009999999311	0	4.190038908e-06	-27.40036774	-0.0002181631717	1.0
361	278.414978	-0.0009999999311	0	-4.227340014e-06	-38.56722641	-0.0001934487809	1.0
362	278.414978	-0.0009999999311	0	4.226915735e-06	-47.62957382	-0.0002166364429	1.0
[LeftHand]
359	283.2879944	0	0	14.03546047	19.96949387	21.59081078	1.0
360	283.2879944	0	0	18.54347038	18.07753181	22.03511238	1.0
361	283.2879944	0	0	24.03972435	16.99296188	22.17789459	1.0
362	283.2879944	0	0	28.4876709	17.71227646	21.93182373	1.0
[LeftHandThumb1]
359	24.6609993	-15.75	26.8239994	0.7210780978	7.948573589	10.24368191	1.0
360	24.6609993	-15.75	26.8239994	0.4831254184	8.683302879	10.36032963	1.0
361	24.6609993	-15.75	26.8239994	0.3766219914	9.399269104	8.913149834	1.0
362	24.6609993	-15.75	26.8239994	0.7465822697	8.877755165	5.480169296	1.0
[LeftHandThumb2]
359	32.29800034	-18.64699936	18.64699936	1.250292063	-0.1505974829	-1.034880996	1.0
360	32.29800034	-18.64699936	18.64699936	1.194386959	-0.1909258664	-1.019524217	1.0
361	32.29800034	-18.64699936	18.64699936	1.134167314	-0.175665766	-0.9906829	1.0
362	32.29800034	-18.64699936	18.64699936	1.080984235	-0.1499709338	-1.007795691	1.0
[LeftHandThumb3]
359	26.52600098	-15.31499958	15.31499958	-2.53153491	-1.560664654	3.082999468	1.0
360	26.52600098	-15.31499958	15.31499958	-2.833378315	-2.107472897	3.155579805	1.0
361	26.52600098	-15.31499958	15.31499958	-3.096104145	-2.642163277	3.229753256	1.0
362	26.52600098	-15.31499958	15.31499958	-3.054141045	-2.724707127	3.225364685	1.0
[LeftHandThumb4]
359	19.54599953	-11.28499985	11.28499985	0	0	0	1.0
360	19.54599953	-11.28499985	11.28499985	0	0	0	1.0
361	19.54599953	-11.28499985	11.28499985	0	0	0	1.0
362	19.54599953	-11.28499985	11.28499985	0	0	0	1.0
[LeftHandIndex1]
359	91.09299469	-5.170999527	22.60099792	0.007320771925	-12.7370348	11.01912594	1.0
360	91.09299469	-5.170999527	22.60099792	0.002410636749	-11.72208786	10.33172989	1.0
361	91.09299469	-5.170999527	22.60099792	0.05566475913	-9.86384201	5.76594305	1.0
362	91.09299469	-5.170999527	22.60099792	0.04528891295	-7.32174921	-4.559175491	1.0
[LeftHandIndex2]
359	36.76399994	0	0	-9.625035091e-06	-1.440542974e-06	-3.844322418e-05	1.0
360	36.76399994	0	0	-4.719563094e-06	1.221665025e-05	-0.0001939585782	1.0
361	36.76399994	0	0	-4.890647233e-06	3.116098742e-05	-0.0002129098139	1.0
362	36.76399994	0	0	-6.179240245e-06	1.651549792e-05	-0.0001409345859	1.0
[LeftHandIndex3]
359	28.83100128	0	0	-0.0763239637	1.022500157	-8.537349701	1.0
360	28.83100128	0	0	-0.07291032374	0.9994550347	-8.343702316	1.0
361	28.83100128	0	0	-0.06971843541	0.97747612	-8.158849716	1.0
362	28.83100128	0	0	-0.06568408012	0.9489719272	-7.919320583	1.0
[LeftHandIndex4]
359	23.92700005	0	0	0	0	0	1.0
360	23.92700005	0	0	0	0	0	1.0
361	23.92700005	0	0	0	0	0	1.0
362	23.92700005	0	0	0	0	0	1.0
[LeftHandMiddle1]
359	95.33399963	0	0	-0.03442818671	-1.630768895	5.822585106	1.0
360	95.33399963	0	0	-0.004561212845	-0.4721628129	2.237813473	1.0
361	95.33399963	0	0	-0.01242880989	1.116501093	-3.78189826	1.0
362	95.33399963	0	0	-0.1670570225	2.915424109	-12.77506065	1.0
[LeftHandMiddle2]
359	36.98199844	0	0	6.54256246e-06	-5.334572415e-05	-3.992726852e-05	1.0
360	36.98199844	0	0	4.206115136e-06	-6.12929216e-05	3.584863225e-05	1.0
361	36.98199844	0	0	-0.000875493628	0.1101238057	-0.9160680771	1.0
362	36.98199844	0	0	-0.01065083407	0.382783711	-3.185663223	1.0
[LeftHandMiddle3]
359	29.50900078	0	0	-0.06955236942	0.9763453603	-8.149526596	1.0
360	29.50900078	0	0	-0.0919483453	1.121611595	-9.37244606	1.0
361	29.50900078	0	0	-0.1170212775	1.264122248	-10.57647038	1.0
362	29.50900078	0	0	-0.1309552044	1.336658359	-11.19122124	1.0
[LeftHandMiddle4]
359	28.3390007	0	0	0	0	0	1.0
360	28.3390007	0	0	0	0	0	1.0
361	28.3390007	0	0	0	0	0	1.0
362	28.3390007	0	0	0	0	0	1.0
[LeftHandRing1]
359	91.04499817	-0.4390000105	-18.65100098	0.01658201776	5.995654106	5.519210815	1.0
360	91.04499817	-0.4390000105	-18.65100098	0.06348792464	8.111941338	-1.777621984	1.0
361	91.04499817	-0.4390000105	-18.65100098	-0.0287732482	10.42854881	-10.63608456	1.0
362	91.04499817	-0.4390000105	-18.65100098	-0.3307325244	12.41846275	-20.36781311	1.0
[LeftHandRing2]
359	31.54000092	0	0	-1.643521136e-05	0.01648961566	-0.1373046488	1.0
360	31.54000092	0	0	-0.01533609349	0.4590305388	-3.821078777	1.0
361	31.54000092	0	0	-0.06466832012	0.9415918589	-7.857381344	1.0
362	31.54000092	0	0	-0.1164583415	1.261224985	-10.55198956	1.0
[LeftHandRing3]
359	29.37700081	0	0	-0.07892081887	1.039694667	-8.682114601	1.0
360	29.37700081	0	0	-0.1002191082	1.170742273	-9.78700161	1.0
361	29.37700081	0	0	-0.1280065328	1.321628928	-11.06373787	1.0
362	29.37700081	0	0	-0.158372581	1.468374491	-12.31100559	1.0
[LeftHandRing4]
359	26.47500038	0	0	0	0	0	1.0
360	26.47500038	0	0	0	0	0	1.0
361	26.47500038	0	0	0	0	0	1.0
362	26.47500038	0	0	0	0	0	1.0
[LeftHandPinky1]
359	80.77799988	-4.887000084	-38.06099701	0.3601739407	19.69845581	11.1531496	1.0
360	80.77799988	-4.887000084	-38.06099701	0.586096406	23.00058365	-1.443332076	1.0
361	80.77799988	-4.887000084	-38.06099701	0.4202188849	26.28039169	-15.21336651	1.0
362	80.77799988	-4.887000084	-38.06099701	-0.1583030969	28.65432358	-28.08846855	1.0
[LeftHandPinky2]
359	36	0	0	0.515257895	-3.054330349	-8.516207695	1.0
360	36	0	0	0.73943156	-2.440817356	-13.18999481	1.0
361	36	0	0	0.8807508349	-1.943951845	-16.88306999	1.0
362	36	0	0	0.9120862484	-1.813835859	-17.83924866	1.0
[LeftHandPinky3]
359	21.14200211	0	0	-0.09425740689	1.135510087	-9.489639282	1.0
360	21.14200211	0	0	-0.193866238	1.622403383	-13.62667465	1.0
361	21.14200211	0	0	-0.3614321053	2.201251268	-18.64622498	1.0
362	21.14200211	0	0	-0.4548123479	2.460529566	-20.94227409	1.0
[LeftHandPinky4]
359	19.75699997	0	0	0	0	0	1.0
360	19.75699997	0	0	0	0	0	1.0
361	19.75699997	0	0	0	0	0	1.0
362	19.75699997	0	0	0	0	0	1.0
[RightShoulder]
359	-45.70000076	109.4620056	-26.28000069	1.674565911	3.168320894	18.53813744	1.0
360	-45.70000076	109.4620056	-26.28000069	1.922220826	4.313101768	17.99572182	1.0
361	-45.70000076	109.4620056	-26.28000069	2.01160264	4.911101818	17.25544167	1.0
362	-45.70000076	109.4620056	-26.28000069	2.049681425	4.955622196	17.60726357	1.0
[RightArm]
359	-105.9280014	-5.248000145	-22.32099915	-10.5229435	28.90877151	59.07979202	1.0
360	-105.9280014	-5.248000145	-22.32099915	9.838993073	30.56274796	56.97896576	1.0
361	-105.9280014	-5.248000145	-22.32099915	19.51210213	28.88698196	56.71583176	1.0
362	-105.9280014	-5.248000145	-22.32099915	25.46885872	25.54483604	53.2113266	1.0
[RightForeArm]
359	-278.414978	0	0	-5.648299975e-06	34.94174957	1.061980765e-05	1.0
360	-278.414978	0	0	8.063670975e-06	33.87659454	1.68846218e-05	1.0
361	-278.414978	0	0	1.519004218e-05	52.01713943	3.66231252e-05	1.0
362	-278.414978	0	0	-8.720170626e-06	76.92636871	2.908756505e-05	1.0
[RightHand]
359	-283.2879944	0	0.0009999999311	-13.46050072	13.11280918	-51.7834816	1.0
360	-283.2879944	0	0.0009999999311	-5.796761036	15.65907192	-44.35809708	1.0
361	-283.2879944	0	0.0009999999311	7.604970932	16.46870422	-27.14004898	1.0
362	-283.2879944	0	0.0009999999311	18.30037689	8.707551003	-12.24262619	1.0
[RightHandPinky1]
359	-80.76699829	-4.885000229	-38.06000137	-0.6739819646	-3.434368372	-26.07100105	1.0
360	-80.76699829	-4.885000229	-38.06000137	-0.6259830594	-5.663120747	-25.9229908	1.0
361	-80.76699829	-4.885000229	-38.06000137	-0.1458543688	-7.512831688	-14.88873959	1.0
362	-80.76699829	-4.885000229	-38.06000137	0.04016525298	-8.562969208	4.310948849	1.0
[RightHandPinky2]
359	-36	0	0.0009999999311	-0.026438592	-0.6057397127	5.009432793	1.0
360	-36	0	0.0009999999311	-0.02897945233	-0.6343915462	5.246375084	1.0
361	-36	0	0.0009999999311	-0.106412828	-1.211918712	10.04917812	1.0
362	-36	0	0.0009999999311	-0.3366181552	-2.136987686	17.91464424	1.0
[RightHandPinky3]
359	-21.14200211	0	0	-0.02390223742	0.5761179924	-4.751391411	1.0
360	-21.14200211	0	0	-0.03695988655	0.7160820961	-5.909520149	1.0
361	-21.14200211	0	0	-0.04269344732	0.7693899274	-6.351145744	1.0
362	-21.14200211	0	0	-0.03632921353	0.7099380493	-5.85860014	1.0
[RightHandPinky4]
359	-19.75699997	0	0	0	0	0	1.0
360	-19.75699997	0	0	0	0	0	1.0
361	-19.75699997	0	0	0	0	0	1.0
362	-19.75699997	0	0	0	0	0	1.0
[RightHandRing1]
359	-91.03599548	-0.4390000105	-18.65100098	-0.5079140067	2.941959381	-22.00847435	1.0
360	-91.03599548	-0.4390000105	-18.65100098	-0.428642869	1.058216453	-20.29933167	1.0
361	-91.03599548	-0.4390000105	-18.65100098	-0.1462896913	-0.8187560439	-12.03523159	1.0
362	-91.03599548	-0.4390000105	-18.65100098	0.0002526495082	-1.945291877	0.8081550002	1.0
[RightHandRing2]
359	-31.54000092	0	0	-1.448153284e-06	-9.420803622e-07	1.017492832e-05	1.0
360	-31.54000092	0	0	5.649800127e-30	1.127786049e-06	2.674762754e-06	1.0
361	-31.54000092	0	0	-0.0001238791447	-0.04028336331	0.3318837285	1.0
362	-31.54000092	0	0	-0.02237439528	-0.5574828386	4.597223282	1.0
[RightHandRing3]
359	-29.37700081	0	0	1.097046137	0.2689563036	-2.215646505	1.0
360	-29.37700081	0	0	1.041368008	0.260926038	-2.14960289	1.0
361	-29.37700081	0	0	1.235786319	0.09740076959	-0.8020239472	1.0
362	-29.37700081	0	0	1.222326636	-0.04889372364	0.4024270773	1.0
[RightHandRing4]
359	-26.47500038	0	0	0	0	0	1.0
360	-26.47500038	0	0	0	0	0	1.0
361	-26.47500038	0	0	0	0	0	1.0
362	-26.47500038	0	0	0	0	0	1.0
[RightHandMiddle1]
359	-95.32500458	0	0	-0.463722229	9.980121613	-22.24090385	1.0
360	-95.32500458	0	0	-0.3092099726	7.957458973	-18.11770821	1.0
361	-95.32500458	0	0	-0.07727167755	5.514228344	-9.721108437	1.0
362	-95.32500458	0	0	0.01500632986	3.875280857	1.09221375	1.0
[RightHandMiddle2]
359	-36.98199844	0	0	-1.342140877e-05	-0.007232899778	0.05959524587	1.0
360	-36.98199844	0	0	6.755057257e-06	-0.01234678924	0.1015811116	1.0
361	-36.98199844	0	0	-0.01191280596	-0.4070327282	3.354812384	1.0
362	-36.98199844	0	0	-0.05901932716	-0.9040475488	7.468928337	1.0
[RightHandMiddle3]
359	-29.50900078	0	0	2.095760345	-0.162941739	1.325355411	1.0
360	-29.50900078	0	0	1.943623424	-0.3207767308	2.626824379	1.0
361	-29.50900078	0	0	1.923196793	-0.6547029018	5.384027481	1.0
362	-29.50900078	0	0	1.581229568	-0.7759154439	6.388515472	1.0
[RightHandMiddle4]
359	-28.3390007	0	0.0009999999311	0	0	0	1.0
360	-28.3390007	0	0.0009999999311	0	0	0	1.0
361	-28.3390007	0	0.0009999999311	0	0	0	1.0
362	-28.3390007	0	0.0009999999311	0	0	0	1.0
[RightHandIndex1]
359	-91.08300018	-5.167999744	22.60099792	-0.1690404564	18.36005211	-20.24671936	1.0
360	-91.08300018	-5.167999744	22.60099792	0.03575628623	15.74161243	-12.98858643	1.0
361	-91.08300018	-5.167999744	22.60099792	0.142818749	12.26684475	-3.419186831	1.0
362	-91.08300018	-5.167999744	22.60099792	0.07572506368	9.904036522	6.551050186	1.0
[RightHandIndex2]
359	-36.76399994	0	0	-0.09817278385	-1.164396882	9.638453484	1.0
360	-36.76399994	0	0	-0.06794076413	-0.9697294235	8.015151024	1.0
361	-36.76399994	0	0	-0.1166359112	-1.268285275	10.50802612	1.0
362	-36.76399994	0	0	-0.1701388359	-1.528832316	12.70049095	1.0
[RightHandIndex3]
359	-28.83100128	0	0	-0.02222326584	-0.5554417968	4.580527306	1.0
360	-28.83100128	0	0	-0.05772579089	-0.8941993117	7.38702631	1.0
361	-28.83100128	0	0	-0.1344957203	-1.361032248	11.28660011	1.0
362	-28.83100128	0	0	-0.1391536295	-1.384117723	11.48061275	1.0
[RightHandIndex4]
359	-23.92700005	0	0	0	0	0	1.0
360	-23.92700005	0	0	0	0	0	1.0
361	-23.92700005	0	0	0	0	0	1.0
362	-23.92700005	0	0	0	0	0	1.0
[RightHandThumb1]
359	-24.64799881	-15.72700024	26.82600021	-0.5143072009	-10.95924187	-18.66698837	1.0
360	-24.64799881	-15.72700024	26.82600021	1.923743367	-12.04952526	-16.93811989	1.0
361	-24.64799881	-15.72700024	26.82600021	4.979728222	-13.67599773	-15.54393673	1.0
362	-24.64799881	-15.72700024	26.82600021	7.251373291	-14.99088097	-14.69864655	1.0
[RightHandThumb2]
359	-32.29800034	-18.64699936	18.64699936	5.11733675	-11.48925114	-1.575163364	1.0
360	-32.29800034	-18.64699936	18.64699936	4.515956402	-9.474832535	-0.8639571667	1.0
361	-32.29800034	-18.64699936	18.64699936	3.371663094	-5.321507931	0.3688182533	1.0
362	-32.29800034	-18.64699936	18.64699936	2.268850088	-0.9968497157	1.438547015	1.0
[RightHandThumb3]
359	-26.52600098	-15.31399918	15.31399918	-0.2239769846	-1.693950176	-2.402433395	1.0
360	-26.52600098	-15.31399918	15.31399918	-0.8951789141	-0.4803909361	-2.464250803	1.0
361	-26.52600098	-15.31399918	15.31399918	-2.070375443	1.548335671	-2.590086699	1.0
362	-26.52600098	-15.31399918	15.31399918	-3.267857313	3.545174122	-2.769604683	1.0
[RightHandThumb4]
359	-19.54599953	-11.28499985	11.28499985	0	0	0	1.0
360	-19.54599953	-11.28499985	11.28499985	0	0	0	1.0
361	-19.54599953	-11.28499985	11.28499985	0	0	0	1.0
362	-19.54599953	-11.28499985	11.28499985	0	0	0	1.0
[LeftUpLeg]
359	82.07800293	-67.51699829	-15.99599934	0.2867607474	0.4326062202	-10.77209473	1.0
360	82.07800293	-67.51699829	-15.99599934	0.1753296107	-2.972955942	-6.077123165	1.0
361	82.07800293	-67.51699829	-15.99599934	-2.862719774	-5.52753067	1.045863986	1.0
362	82.07800293	-67.51699829	-15.99599934	-8.33746624	-3.155620813	6.788989544	1.0
[LeftLeg]
359	0	-443.7049866	2.845999956	32.07514954	8.319596291	-7.24940443	1.0
360	0	-443.7049866	2.845999956	28.8372879	10.8233881	-4.06225729	1.0
361	0	-443.7049866	2.845999956	33.41532898	12.17096329	-1.919148922	1.0
362	0	-443.7049866	2.845999956	39.64314651	5.194218636	-1.640350342	1.0
[LeftFoot]
359	0	-444.2789917	-29.8219986	-24.46919823	5.614336014	3.408325434	1.0
360	0	-444.2789917	-29.8219986	-23.27586365	6.207993031	1.013025045	1.0
361	0	-444.2789917	-29.8219986	-18.22849846	7.127026081	-1.941866875	1.0
362	0	-444.2789917	-29.8219986	-13.9862175	5.607995033	-2.322422981	1.0
[LeftToeBase]
359	0	-87.28699493	107.1060028	-3.550436497	-6.833278348e-06	1.28600675e-06	1.0
360	0	-87.28699493	107.1060028	-5.1850667	4.399579211e-06	1.437017772e-06	1.0
361	0	-87.28699493	107.1060028	-9.23600769	-6.501129974e-06	-6.094128224e-08	1.0
362	0	-87.28699493	107.1060028	-11.78012753	-0.1261727214	-0.6786141396	1.0
[RightUpLeg]
359	-82.07800293	-67.51699829	-15.99599934	-30.12845802	-14.82365131	-17.65303612	1.0
360	-82.07800293	-67.51699829	-15.99599934	-25.30059433	-14.05008221	-12.48854256	1.0
361	-82.07800293	-67.51699829	-15.99599934	-15.26899719	-10.77164459	-5.208129883	1.0
362	-82.07800293	-67.51699829	-15.99599934	-6.156656742	-8.285591125	2.365231514	1.0
[RightLeg]
359	0	-443.7049866	2.861999989	63.23912048	-5.684499741	-8.159499168	1.0
360	0	-443.7049866	2.861999989	61.81462097	-6.185418606	-7.933110714	1.0
361	0	-443.7049866	2.861999989	48.91482162	-7.02371788	-7.189426422	1.0
362	0	-443.7049866	2.861999989	34.49417496	-9.279214859	-5.697741985	1.0
[RightFoot]
359	0	-444.2770081	-29.83799934	-11.90783691	-4.839927197	5.656720638	1.0
360	0	-444.2770081	-29.83799934	-3.026911736	-5.079619408	5.858778	1.0
361	0	-444.2770081	-29.83799934	-4.136832237	-4.140446186	12.80006886	1.0
362	0	-444.2770081	-29.83799934	-16.2439003	-5.538468361	11.60179043	1.0
[RightToeBase]
359	0	-87.28699493	107.1060028	5.408460617	-1.506292938e-05	2.646681423e-06	1.0
360	0	-87.28699493	107.1060028	-5.146116257	0.1747917533	2.865866661	1.0
361	0	-87.28699493	107.1060028	-15.80377102	-0.6022042632	-2.723706722	1.0
362	0	-87.28699493	107.1060028	-7.160745621	-6.273317467e-06	2.964868145e-06	1.0
[EndOfFile]
